<mxfile host="app.diagrams.net" modified="2024-04-22T10:08:53.638Z" agent="Mozilla/5.0 (Macintosh; Intel Mac OS X 10_15_7) AppleWebKit/605.1.15 (KHTML, like Gecko) Version/17.4.1 Safari/605.1.15" etag="MP2NIu9jVtkmjyLt5so9" version="24.2.7" type="google">
  <diagram name="Sayfa -1" id="kqv6xfkf8oTYZMRjxfBb">
    <mxGraphModel grid="1" page="1" gridSize="10" guides="1" tooltips="1" connect="1" arrows="1" fold="1" pageScale="1" pageWidth="827" pageHeight="1169" math="0" shadow="0">
      <root>
        <mxCell id="0" />
        <mxCell id="1" parent="0" />
        <mxCell id="yzZUBpGOMOylDpjEEW90-15" value="Upsample by 2" style="shape=cube;whiteSpace=wrap;html=1;boundedLbl=1;backgroundOutline=1;darkOpacity=0.05;darkOpacity2=0.1;fillColor=#dae8fc;strokeColor=#6c8ebf;" vertex="1" parent="1">
          <mxGeometry x="360" y="360" width="120" height="50" as="geometry" />
        </mxCell>
        <mxCell id="yzZUBpGOMOylDpjEEW90-16" value="&lt;span style=&quot;font-size: 11px;&quot;&gt;ConvBNSiLU&lt;/span&gt;" style="shape=cube;whiteSpace=wrap;html=1;boundedLbl=1;backgroundOutline=1;darkOpacity=0.05;darkOpacity2=0.1;fillColor=#dae8fc;strokeColor=#6c8ebf;" vertex="1" parent="1">
          <mxGeometry x="360" y="420" width="120" height="50" as="geometry" />
        </mxCell>
        <mxCell id="yzZUBpGOMOylDpjEEW90-19" value="Concat&amp;nbsp;" style="shape=cube;whiteSpace=wrap;html=1;boundedLbl=1;backgroundOutline=1;darkOpacity=0.05;darkOpacity2=0.1;fillColor=#dae8fc;strokeColor=#6c8ebf;" vertex="1" parent="1">
          <mxGeometry x="320" y="300" width="200" height="50" as="geometry" />
        </mxCell>
        <mxCell id="yzZUBpGOMOylDpjEEW90-21" value="" style="endArrow=classic;html=1;rounded=0;" edge="1" parent="1">
          <mxGeometry width="50" height="50" relative="1" as="geometry">
            <mxPoint x="280" y="324.76" as="sourcePoint" />
            <mxPoint x="330" y="324.76" as="targetPoint" />
          </mxGeometry>
        </mxCell>
        <mxCell id="yzZUBpGOMOylDpjEEW90-22" value="" style="endArrow=classic;html=1;rounded=0;" edge="1" parent="1">
          <mxGeometry width="50" height="50" relative="1" as="geometry">
            <mxPoint x="320" y="444.79999999999995" as="sourcePoint" />
            <mxPoint x="370" y="444.79999999999995" as="targetPoint" />
          </mxGeometry>
        </mxCell>
        <mxCell id="yzZUBpGOMOylDpjEEW90-23" value="C3" style="shape=cube;whiteSpace=wrap;html=1;boundedLbl=1;backgroundOutline=1;darkOpacity=0.05;darkOpacity2=0.1;fillColor=#dae8fc;strokeColor=#6c8ebf;" vertex="1" parent="1">
          <mxGeometry x="320" y="240" width="200" height="50" as="geometry" />
        </mxCell>
        <mxCell id="yzZUBpGOMOylDpjEEW90-25" value="" style="edgeStyle=orthogonalEdgeStyle;rounded=0;orthogonalLoop=1;jettySize=auto;html=1;" edge="1" parent="1">
          <mxGeometry relative="1" as="geometry">
            <mxPoint x="419.83000000000004" y="370" as="sourcePoint" />
            <mxPoint x="419.83000000000004" y="350" as="targetPoint" />
          </mxGeometry>
        </mxCell>
        <mxCell id="yzZUBpGOMOylDpjEEW90-27" value="" style="edgeStyle=orthogonalEdgeStyle;rounded=0;orthogonalLoop=1;jettySize=auto;html=1;" edge="1" parent="1">
          <mxGeometry relative="1" as="geometry">
            <mxPoint x="419.8" y="430" as="sourcePoint" />
            <mxPoint x="419.8" y="410" as="targetPoint" />
          </mxGeometry>
        </mxCell>
        <mxCell id="yzZUBpGOMOylDpjEEW90-29" value="Upsample by 2" style="shape=cube;whiteSpace=wrap;html=1;boundedLbl=1;backgroundOutline=1;darkOpacity=0.05;darkOpacity2=0.1;fillColor=#dae8fc;strokeColor=#6c8ebf;" vertex="1" parent="1">
          <mxGeometry x="320" y="120" width="200" height="50" as="geometry" />
        </mxCell>
        <mxCell id="yzZUBpGOMOylDpjEEW90-30" value="&lt;span style=&quot;font-size: 11px;&quot;&gt;ConvBNSiLU&lt;/span&gt;" style="shape=cube;whiteSpace=wrap;html=1;boundedLbl=1;backgroundOutline=1;darkOpacity=0.05;darkOpacity2=0.1;fillColor=#dae8fc;strokeColor=#6c8ebf;" vertex="1" parent="1">
          <mxGeometry x="320" y="180" width="200" height="50" as="geometry" />
        </mxCell>
        <mxCell id="yzZUBpGOMOylDpjEEW90-31" value="Concat&amp;nbsp;" style="shape=cube;whiteSpace=wrap;html=1;boundedLbl=1;backgroundOutline=1;darkOpacity=0.05;darkOpacity2=0.1;fillColor=#dae8fc;strokeColor=#6c8ebf;" vertex="1" parent="1">
          <mxGeometry x="240" y="60" width="350" height="50" as="geometry" />
        </mxCell>
        <mxCell id="yzZUBpGOMOylDpjEEW90-32" value="" style="edgeStyle=orthogonalEdgeStyle;rounded=0;orthogonalLoop=1;jettySize=auto;html=1;" edge="1" parent="1">
          <mxGeometry relative="1" as="geometry">
            <mxPoint x="419.5" y="70" as="sourcePoint" />
            <mxPoint x="419.5" y="50" as="targetPoint" />
          </mxGeometry>
        </mxCell>
        <mxCell id="yzZUBpGOMOylDpjEEW90-33" value="" style="edgeStyle=orthogonalEdgeStyle;rounded=0;orthogonalLoop=1;jettySize=auto;html=1;" edge="1" parent="1">
          <mxGeometry relative="1" as="geometry">
            <mxPoint x="419.50000000000006" y="130" as="sourcePoint" />
            <mxPoint x="419.50000000000006" y="110" as="targetPoint" />
          </mxGeometry>
        </mxCell>
        <mxCell id="yzZUBpGOMOylDpjEEW90-34" value="" style="edgeStyle=orthogonalEdgeStyle;rounded=0;orthogonalLoop=1;jettySize=auto;html=1;" edge="1" parent="1">
          <mxGeometry relative="1" as="geometry">
            <mxPoint x="419.5" y="190" as="sourcePoint" />
            <mxPoint x="419.5" y="170" as="targetPoint" />
          </mxGeometry>
        </mxCell>
        <mxCell id="yzZUBpGOMOylDpjEEW90-36" value="" style="edgeStyle=orthogonalEdgeStyle;rounded=0;orthogonalLoop=1;jettySize=auto;html=1;" edge="1" parent="1">
          <mxGeometry relative="1" as="geometry">
            <mxPoint x="419.66" y="250" as="sourcePoint" />
            <mxPoint x="419.66" y="230" as="targetPoint" />
          </mxGeometry>
        </mxCell>
        <mxCell id="yzZUBpGOMOylDpjEEW90-37" value="" style="endArrow=classic;html=1;rounded=0;" edge="1" parent="1">
          <mxGeometry width="50" height="50" relative="1" as="geometry">
            <mxPoint x="200" y="84.66" as="sourcePoint" />
            <mxPoint x="250" y="84.66" as="targetPoint" />
          </mxGeometry>
        </mxCell>
        <mxCell id="yzZUBpGOMOylDpjEEW90-38" value="C3" style="shape=cube;whiteSpace=wrap;html=1;boundedLbl=1;backgroundOutline=1;darkOpacity=0.05;darkOpacity2=0.1;fillColor=#dae8fc;strokeColor=#6c8ebf;" vertex="1" parent="1">
          <mxGeometry x="240" width="350" height="50" as="geometry" />
        </mxCell>
        <mxCell id="yzZUBpGOMOylDpjEEW90-40" value="C3" style="shape=cube;whiteSpace=wrap;html=1;boundedLbl=1;backgroundOutline=1;darkOpacity=0.05;darkOpacity2=0.1;fillColor=#d5e8d4;strokeColor=#82b366;" vertex="1" parent="1">
          <mxGeometry x="680" y="360" width="120" height="50" as="geometry" />
        </mxCell>
        <mxCell id="yzZUBpGOMOylDpjEEW90-42" value="Concat&amp;nbsp;" style="shape=cube;whiteSpace=wrap;html=1;boundedLbl=1;backgroundOutline=1;darkOpacity=0.05;darkOpacity2=0.1;fillColor=#d5e8d4;strokeColor=#82b366;" vertex="1" parent="1">
          <mxGeometry x="680" y="300" width="120" height="50" as="geometry" />
        </mxCell>
        <mxCell id="yzZUBpGOMOylDpjEEW90-50" value="C3" style="shape=cube;whiteSpace=wrap;html=1;boundedLbl=1;backgroundOutline=1;darkOpacity=0.05;darkOpacity2=0.1;fillColor=#d5e8d4;strokeColor=#82b366;" vertex="1" parent="1">
          <mxGeometry x="680" y="180" width="120" height="50" as="geometry" />
        </mxCell>
        <mxCell id="yzZUBpGOMOylDpjEEW90-51" value="&lt;span style=&quot;font-size: 11px;&quot;&gt;ConvBNSiLU&lt;/span&gt;" style="shape=cube;whiteSpace=wrap;html=1;boundedLbl=1;backgroundOutline=1;darkOpacity=0.05;darkOpacity2=0.1;fillColor=#d5e8d4;strokeColor=#82b366;" vertex="1" parent="1">
          <mxGeometry x="680" y="240" width="120" height="50" as="geometry" />
        </mxCell>
        <mxCell id="yzZUBpGOMOylDpjEEW90-52" value="Concat&amp;nbsp;" style="shape=cube;whiteSpace=wrap;html=1;boundedLbl=1;backgroundOutline=1;darkOpacity=0.05;darkOpacity2=0.1;fillColor=#d5e8d4;strokeColor=#82b366;" vertex="1" parent="1">
          <mxGeometry x="680" y="120" width="120" height="50" as="geometry" />
        </mxCell>
        <mxCell id="yzZUBpGOMOylDpjEEW90-58" value="ConvBNSiLU" style="shape=cube;whiteSpace=wrap;html=1;boundedLbl=1;backgroundOutline=1;darkOpacity=0.05;darkOpacity2=0.1;fillColor=#d5e8d4;strokeColor=#82b366;" vertex="1" parent="1">
          <mxGeometry x="680" y="60" width="120" height="50" as="geometry" />
        </mxCell>
        <mxCell id="yzZUBpGOMOylDpjEEW90-60" style="edgeStyle=orthogonalEdgeStyle;rounded=0;orthogonalLoop=1;jettySize=auto;html=1;entryX=0.488;entryY=0.004;entryDx=0;entryDy=0;entryPerimeter=0;exitX=0.511;exitY=0;exitDx=0;exitDy=0;exitPerimeter=0;" edge="1" parent="1" source="yzZUBpGOMOylDpjEEW90-38" target="yzZUBpGOMOylDpjEEW90-58">
          <mxGeometry relative="1" as="geometry" />
        </mxCell>
        <mxCell id="yzZUBpGOMOylDpjEEW90-63" value="" style="edgeStyle=orthogonalEdgeStyle;rounded=0;orthogonalLoop=1;jettySize=auto;html=1;" edge="1" parent="1">
          <mxGeometry relative="1" as="geometry">
            <mxPoint x="739.8" y="110" as="sourcePoint" />
            <mxPoint x="739.8" y="130" as="targetPoint" />
          </mxGeometry>
        </mxCell>
        <mxCell id="yzZUBpGOMOylDpjEEW90-64" value="" style="edgeStyle=orthogonalEdgeStyle;rounded=0;orthogonalLoop=1;jettySize=auto;html=1;" edge="1" parent="1">
          <mxGeometry relative="1" as="geometry">
            <mxPoint x="739.8" y="170" as="sourcePoint" />
            <mxPoint x="739.8" y="190" as="targetPoint" />
          </mxGeometry>
        </mxCell>
        <mxCell id="yzZUBpGOMOylDpjEEW90-65" value="" style="edgeStyle=orthogonalEdgeStyle;rounded=0;orthogonalLoop=1;jettySize=auto;html=1;" edge="1" parent="1">
          <mxGeometry relative="1" as="geometry">
            <mxPoint x="739.8" y="230" as="sourcePoint" />
            <mxPoint x="739.8" y="250" as="targetPoint" />
          </mxGeometry>
        </mxCell>
        <mxCell id="yzZUBpGOMOylDpjEEW90-67" value="" style="edgeStyle=orthogonalEdgeStyle;rounded=0;orthogonalLoop=1;jettySize=auto;html=1;" edge="1" parent="1">
          <mxGeometry relative="1" as="geometry">
            <mxPoint x="739.8" y="290" as="sourcePoint" />
            <mxPoint x="739.8" y="310" as="targetPoint" />
          </mxGeometry>
        </mxCell>
        <mxCell id="yzZUBpGOMOylDpjEEW90-68" value="" style="edgeStyle=orthogonalEdgeStyle;rounded=0;orthogonalLoop=1;jettySize=auto;html=1;" edge="1" parent="1">
          <mxGeometry relative="1" as="geometry">
            <mxPoint x="739.66" y="350" as="sourcePoint" />
            <mxPoint x="739.66" y="370" as="targetPoint" />
          </mxGeometry>
        </mxCell>
        <mxCell id="yzZUBpGOMOylDpjEEW90-69" value="" style="edgeStyle=orthogonalEdgeStyle;rounded=0;orthogonalLoop=1;jettySize=auto;html=1;" edge="1" parent="1">
          <mxGeometry relative="1" as="geometry">
            <mxPoint x="739.66" y="410" as="sourcePoint" />
            <mxPoint x="870" y="420" as="targetPoint" />
            <Array as="points">
              <mxPoint x="740" y="420" />
            </Array>
          </mxGeometry>
        </mxCell>
        <mxCell id="yzZUBpGOMOylDpjEEW90-71" value="" style="edgeStyle=orthogonalEdgeStyle;rounded=0;orthogonalLoop=1;jettySize=auto;html=1;" edge="1" parent="1">
          <mxGeometry relative="1" as="geometry">
            <mxPoint x="740" y="230" as="sourcePoint" />
            <mxPoint x="870" y="230" as="targetPoint" />
            <Array as="points">
              <mxPoint x="750.34" y="230" />
            </Array>
          </mxGeometry>
        </mxCell>
        <mxCell id="yzZUBpGOMOylDpjEEW90-72" value="" style="edgeStyle=orthogonalEdgeStyle;rounded=0;orthogonalLoop=1;jettySize=auto;html=1;" edge="1" parent="1">
          <mxGeometry relative="1" as="geometry">
            <mxPoint x="740" y="40.00000000000003" as="sourcePoint" />
            <mxPoint x="870" y="40" as="targetPoint" />
            <Array as="points">
              <mxPoint x="750.34" y="40.00000000000003" />
            </Array>
          </mxGeometry>
        </mxCell>
        <mxCell id="yzZUBpGOMOylDpjEEW90-73" value="" style="edgeStyle=orthogonalEdgeStyle;rounded=0;orthogonalLoop=1;jettySize=auto;html=1;" edge="1" parent="1">
          <mxGeometry relative="1" as="geometry">
            <mxPoint x="419.66" y="310" as="sourcePoint" />
            <mxPoint x="419.66" y="290" as="targetPoint" />
          </mxGeometry>
        </mxCell>
        <mxCell id="yzZUBpGOMOylDpjEEW90-74" style="edgeStyle=orthogonalEdgeStyle;rounded=0;orthogonalLoop=1;jettySize=auto;html=1;entryX=0;entryY=0;entryDx=0;entryDy=15;entryPerimeter=0;" edge="1" parent="1" source="yzZUBpGOMOylDpjEEW90-30" target="yzZUBpGOMOylDpjEEW90-52">
          <mxGeometry relative="1" as="geometry" />
        </mxCell>
        <mxCell id="yzZUBpGOMOylDpjEEW90-75" style="edgeStyle=orthogonalEdgeStyle;rounded=0;orthogonalLoop=1;jettySize=auto;html=1;exitX=0;exitY=0;exitDx=120;exitDy=35;exitPerimeter=0;entryX=0;entryY=0;entryDx=0;entryDy=15;entryPerimeter=0;" edge="1" parent="1" source="yzZUBpGOMOylDpjEEW90-16" target="yzZUBpGOMOylDpjEEW90-42">
          <mxGeometry relative="1" as="geometry" />
        </mxCell>
        <mxCell id="yzZUBpGOMOylDpjEEW90-77" value="20 x 20 x 1024" style="text;html=1;align=center;verticalAlign=middle;whiteSpace=wrap;rounded=0;" vertex="1" parent="1">
          <mxGeometry x="230" y="430" width="90" height="30" as="geometry" />
        </mxCell>
        <mxCell id="yzZUBpGOMOylDpjEEW90-78" value="40 x 40 x 512" style="text;html=1;align=center;verticalAlign=middle;whiteSpace=wrap;rounded=0;" vertex="1" parent="1">
          <mxGeometry x="180" y="310" width="90" height="30" as="geometry" />
        </mxCell>
        <mxCell id="yzZUBpGOMOylDpjEEW90-79" value="80 x 80 x 256" style="text;html=1;align=center;verticalAlign=middle;whiteSpace=wrap;rounded=0;" vertex="1" parent="1">
          <mxGeometry x="110" y="70" width="90" height="30" as="geometry" />
        </mxCell>
        <mxCell id="yzZUBpGOMOylDpjEEW90-81" value="80 x 80 x 256" style="text;html=1;align=center;verticalAlign=middle;whiteSpace=wrap;rounded=0;" vertex="1" parent="1">
          <mxGeometry x="550" y="-50" width="90" height="30" as="geometry" />
        </mxCell>
        <mxCell id="yzZUBpGOMOylDpjEEW90-82" value="40 x 40 x 512" style="text;html=1;align=center;verticalAlign=middle;whiteSpace=wrap;rounded=0;" vertex="1" parent="1">
          <mxGeometry x="550" y="210" width="90" height="30" as="geometry" />
        </mxCell>
        <mxCell id="yzZUBpGOMOylDpjEEW90-83" value="20 x 20 x 1024" style="text;html=1;align=center;verticalAlign=middle;whiteSpace=wrap;rounded=0;" vertex="1" parent="1">
          <mxGeometry x="580" y="410" width="90" height="30" as="geometry" />
        </mxCell>
        <mxCell id="yzZUBpGOMOylDpjEEW90-84" value="20 x 20 x 1024" style="text;html=1;align=center;verticalAlign=middle;whiteSpace=wrap;rounded=0;" vertex="1" parent="1">
          <mxGeometry x="880" y="400" width="90" height="30" as="geometry" />
        </mxCell>
        <mxCell id="yzZUBpGOMOylDpjEEW90-85" value="40 x 40 x 512" style="text;html=1;align=center;verticalAlign=middle;whiteSpace=wrap;rounded=0;" vertex="1" parent="1">
          <mxGeometry x="880" y="210" width="90" height="30" as="geometry" />
        </mxCell>
        <mxCell id="yzZUBpGOMOylDpjEEW90-86" value="80 x 80 x 256" style="text;html=1;align=center;verticalAlign=middle;whiteSpace=wrap;rounded=0;" vertex="1" parent="1">
          <mxGeometry x="880" y="20" width="90" height="30" as="geometry" />
        </mxCell>
      </root>
    </mxGraphModel>
  </diagram>
</mxfile>
